<svg width="41" height="40" viewBox="0 0 41 40" fill="none" xmlns="http://www.w3.org/2000/svg">
<path d="M27.4599 33.9027C27.8435 34.3147 28.1901 34.7327 28.6329 35.0534C29.702 35.8284 30.8749 35.9579 32.1268 35.5839C33.2466 35.2489 34.2033 34.6295 35.0982 33.9128C36.5912 32.7181 37.6526 31.2061 38.3648 29.4537C38.6746 28.6914 38.9054 27.9003 38.9303 27.0745C38.9852 25.2502 38.0877 23.9133 36.3776 23.2195C36.2918 23.1848 36.1922 23.1721 36.1099 23.0697C36.2532 23.0697 36.3733 23.0655 36.4934 23.0697C38.7518 23.1552 40.141 21.9131 40.6884 19.9052C41.0556 18.5599 41.0745 17.1926 40.8686 15.8142C40.6095 14.0822 39.9539 12.5135 38.9311 11.0937C38.4034 10.361 37.7547 9.74161 36.9147 9.36508C35.7246 8.83203 34.5585 8.98264 33.4216 9.55038C33.2903 9.61554 33.1633 9.68915 33.0218 9.745C33.3341 9.37778 33.6378 9.00971 33.8755 8.59511C34.5705 7.38177 34.5165 6.16589 33.879 4.95255C33.3787 4.00066 32.6494 3.23576 31.8205 2.56056C30.4425 1.43945 28.8886 0.664394 27.1373 0.289562C25.9017 0.0247269 24.6593 -0.108116 23.4177 0.235409C22.0259 0.621243 21.1584 1.53421 20.7526 2.89054C20.6556 3.21461 20.6084 3.54883 20.5381 3.88136C20.4883 3.32038 20.3467 2.78901 20.1202 2.27626C19.6165 1.13822 18.7302 0.455402 17.5255 0.168564C16.2865 -0.126732 15.0517 0.00272369 13.8273 0.27433C11.9516 0.690624 10.317 1.56213 8.88496 2.8237C8.21997 3.40922 7.64165 4.0582 7.2255 4.83748C6.40607 6.37404 6.5914 7.93682 7.74033 9.25424C7.84672 9.37693 7.94969 9.50216 8.02606 9.65784C7.81069 9.54869 7.59961 9.42939 7.37909 9.33039C5.68188 8.56888 4.11766 8.8481 2.79284 10.1503C1.83011 11.0971 1.19773 12.2495 0.710364 13.4823C0.100294 15.024 -0.0876183 16.6265 0.0359402 18.2748C0.0994355 19.1192 0.274477 19.9332 0.635714 20.6947C1.456 22.425 3.00563 23.0469 4.84442 22.8734C4.88733 22.8692 4.93023 22.8658 4.97656 22.8751C4.6608 23.0063 4.3459 23.1307 4.04473 23.2897C2.30118 24.2086 1.72286 25.7816 2.02489 27.605C2.33464 29.4774 3.21328 31.091 4.43685 32.5277C5.39615 33.6539 6.54679 34.5584 7.90336 35.1803C8.65157 35.523 9.44097 35.7514 10.2853 35.6761C11.4788 35.5695 12.3875 34.9781 13.104 34.0617C13.1683 33.9788 13.2327 33.8959 13.2979 33.8138C13.3073 33.802 13.3271 33.7977 13.3828 33.7673C13.2962 34.1015 13.2198 34.407 13.176 34.7192C12.9315 36.4444 13.6385 37.7161 15.0895 38.6249C16.362 39.4211 17.782 39.7824 19.263 39.9355C21.1602 40.131 22.9972 39.8856 24.7562 39.1503C25.8459 38.6951 26.7743 38.0351 27.3166 36.9563C27.6899 36.2117 27.7328 35.4189 27.5998 34.6109C27.5603 34.3731 27.5063 34.1379 27.4582 33.9018L27.4599 33.9027ZM9.58169 10.8974C9.67179 10.8695 9.70611 10.9203 9.74558 10.9465C10.4955 11.4465 11.2986 11.8468 12.1481 12.1488C13.3562 12.5787 14.5841 12.9281 15.89 12.8782C16.6906 12.8477 17.389 12.5744 17.9596 12.0143C18.5294 11.455 18.9515 10.79 19.2913 10.0784C19.9572 8.68395 20.4317 7.2337 20.5261 5.6396C20.5389 5.70644 20.5466 5.73098 20.5484 5.75637C20.7183 7.7253 21.3215 9.55377 22.3957 11.224C22.7578 11.7867 23.204 12.2664 23.8175 12.593C24.5606 12.9882 25.3534 12.9958 26.1411 12.9053C27.7173 12.7233 29.2009 12.225 30.5926 11.4694C30.8217 11.345 31.0483 11.2164 31.2765 11.0903C31.0208 11.4025 30.7411 11.6809 30.4888 11.9813C29.4617 13.2073 28.6457 14.5501 28.1807 16.085C27.7997 17.3449 28.0691 18.4533 28.9658 19.4238C29.9234 20.4611 31.0714 21.2438 32.3216 21.8936C32.8656 22.1762 33.4448 22.3785 34.0789 22.6247C33.2655 22.5367 32.525 22.4766 31.7725 22.5265C30.5583 22.6069 29.3708 22.8007 28.2279 23.2144C26.8816 23.7026 26.0399 24.6139 25.8502 26.0481C25.6151 27.8258 25.7593 29.5714 26.3067 31.2831C26.3565 31.4379 26.4406 31.5868 26.4363 31.8017C26.3754 31.7146 26.3385 31.6664 26.3058 31.6156C25.2805 30.0122 23.9411 28.7244 22.2979 27.7446C21.8946 27.5043 21.4587 27.3156 20.9945 27.253C20.0215 27.1227 19.1223 27.3537 18.2969 27.8791C16.8176 28.8209 15.5674 29.9919 14.597 31.4464C14.5584 31.5039 14.5412 31.5936 14.4408 31.6012C14.4245 31.4954 14.4811 31.4125 14.5094 31.3237C15.05 29.6001 15.316 27.8495 15.0509 26.0456C14.8707 24.8238 14.3121 23.8744 13.1288 23.3287C12.5068 23.0418 11.8624 22.8455 11.1991 22.7C10.0399 22.4462 8.8678 22.3167 7.67855 22.4182C7.434 22.4394 7.18775 22.4225 6.94149 22.4605C7.00498 22.4089 7.07019 22.3844 7.13541 22.3615C8.99994 21.7202 10.6379 20.7268 11.9971 19.3037C12.7994 18.4635 13.1057 17.4786 12.862 16.3473C12.5239 14.7803 11.7028 13.4442 10.7564 12.1734C10.4131 11.7122 9.99956 11.3103 9.57912 10.8966L9.58169 10.8974Z" fill="black"/>
</svg>
