<svg width="34" height="33" viewBox="0 0 34 33" fill="none" xmlns="http://www.w3.org/2000/svg">
<path d="M22.7716 27.9697C23.0897 28.3097 23.3772 28.6545 23.7443 28.9191C24.6309 29.5585 25.6036 29.6653 26.6418 29.3567C27.5703 29.0803 28.3637 28.5693 29.1059 27.9781C30.344 26.9924 31.2241 25.745 31.8147 24.2993C32.0716 23.6704 32.263 23.0177 32.2836 22.3364C32.3292 20.8314 31.5849 19.7285 30.1668 19.1561C30.0956 19.1275 30.0131 19.117 29.9448 19.0325C30.0636 19.0325 30.1632 19.029 30.2628 19.0325C32.1356 19.103 33.2876 18.0783 33.7416 16.4218C34.0461 15.3119 34.0618 14.1839 33.891 13.0467C33.6761 11.6178 33.1325 10.3236 32.2843 9.15231C31.8467 8.5478 31.3088 8.03683 30.6122 7.72619C29.6253 7.28642 28.6583 7.41067 27.7155 7.87906C27.6066 7.93282 27.5013 7.99355 27.3839 8.03962C27.6429 7.73666 27.8948 7.43301 28.0919 7.09096C28.6683 6.08996 28.6234 5.08686 28.0947 4.08585C27.6799 3.30054 27.0751 2.6695 26.3877 2.11246C25.245 1.18754 23.9564 0.548122 22.5041 0.238888C21.4795 0.0203972 20.4491 -0.0891991 19.4195 0.19421C18.2654 0.512524 17.546 1.26572 17.2095 2.3847C17.1291 2.65205 17.0899 2.92778 17.0316 3.20212C16.9903 2.73931 16.8729 2.30093 16.685 1.87791C16.2674 0.93903 15.5323 0.375702 14.5333 0.139065C13.5058 -0.104557 12.4819 0.00224686 11.4665 0.226318C9.91109 0.569763 8.55559 1.28876 7.36801 2.32955C6.81656 2.8126 6.33698 3.34801 5.99188 3.99092C5.31235 5.25858 5.46604 6.54788 6.41881 7.63475C6.50704 7.73596 6.59243 7.83928 6.65575 7.96772C6.47716 7.87767 6.30211 7.77924 6.11925 7.69757C4.7118 7.06932 3.41465 7.29968 2.31601 8.37398C1.51765 9.1551 0.993242 10.1059 0.589082 11.1229C0.0831703 12.3948 -0.0726591 13.7169 0.029804 15.0767C0.0824587 15.7733 0.227615 16.4449 0.527177 17.0731C1.20742 18.5006 2.49248 19.0137 4.01733 18.8706C4.05291 18.8671 4.08848 18.8643 4.12691 18.872C3.86506 18.9802 3.60392 19.0828 3.35416 19.214C1.9083 19.9721 1.42871 21.2698 1.67918 22.7741C1.93605 24.3189 2.66467 25.6501 3.67934 26.8354C4.47485 27.7645 5.42904 28.5107 6.554 29.0238C7.17447 29.3065 7.8291 29.4949 8.52926 29.4328C9.51903 29.3449 10.2726 28.8569 10.8667 28.1009C10.9201 28.0325 10.9734 27.9641 11.0275 27.8964C11.0353 27.8866 11.0517 27.8831 11.098 27.858C11.0261 28.1337 10.9628 28.3857 10.9265 28.6433C10.7237 30.0666 11.31 31.1158 12.5132 31.8655C13.5685 32.5224 14.7461 32.8205 15.9742 32.9468C17.5474 33.1081 19.0709 32.9056 20.5295 32.299C21.4332 31.9235 22.2031 31.379 22.6528 30.489C22.9623 29.8747 22.9979 29.2206 22.8876 28.554C22.8549 28.3578 22.8101 28.1638 22.7702 27.969L22.7716 27.9697ZM7.94579 8.99036C8.02051 8.96733 8.04897 9.00921 8.0817 9.03085C8.70359 9.4434 9.3696 9.77358 10.074 10.0228C11.0759 10.3774 12.0941 10.6657 13.1771 10.6245C13.841 10.5994 14.4202 10.3739 14.8934 9.91179C15.3658 9.45038 15.7159 8.90171 15.9977 8.31465C16.5499 7.16426 16.9433 5.9678 17.0216 4.65267C17.0323 4.70782 17.0387 4.72806 17.0401 4.749C17.181 6.37337 17.6812 7.88186 18.5721 9.25981C18.8724 9.72402 19.2424 10.1198 19.7511 10.3893C20.3673 10.7153 21.0248 10.7215 21.678 10.6468C22.9851 10.4968 24.2154 10.0856 25.3695 9.46225C25.5595 9.35963 25.7473 9.25353 25.9366 9.14952C25.7246 9.4071 25.4926 9.63676 25.2834 9.88457C24.4317 10.896 23.755 12.0039 23.3693 13.2701C23.0534 14.3095 23.2768 15.224 24.0204 16.0246C24.8145 16.8804 25.7666 17.5261 26.8033 18.0622C27.2544 18.2954 27.7347 18.4622 28.2605 18.6654C27.586 18.5928 26.9719 18.5432 26.3479 18.5844C25.341 18.6507 24.3563 18.8106 23.4085 19.1519C22.2921 19.5547 21.594 20.3065 21.4368 21.4897C21.2418 22.9563 21.3613 24.3964 21.8153 25.8085C21.8566 25.9363 21.9263 26.0591 21.9228 26.2364C21.8722 26.1645 21.8416 26.1247 21.8146 26.0829C20.9643 24.7601 19.8536 23.6976 18.491 22.8893C18.1565 22.691 17.7951 22.5354 17.4101 22.4837C16.6032 22.3762 15.8575 22.5668 15.173 23.0003C13.9463 23.7772 12.9096 24.7433 12.1048 25.9433C12.0728 25.9907 12.0585 26.0647 11.9753 26.071C11.9618 25.9837 12.0087 25.9153 12.0322 25.842C12.4805 24.4201 12.7011 22.9758 12.4812 21.4876C12.3318 20.4796 11.8686 19.6964 10.8873 19.2461C10.3715 19.0095 9.83709 18.8476 9.28706 18.7275C8.32576 18.5181 7.35378 18.4113 6.36758 18.495C6.16478 18.5125 5.96057 18.4985 5.75636 18.5299C5.80901 18.4874 5.86309 18.4671 5.91717 18.4483C7.46336 17.9191 8.82171 17.0996 9.9488 15.9255C10.6141 15.2323 10.8681 14.4198 10.666 13.4865C10.3857 12.1937 9.70474 11.0915 8.9199 10.043C8.63529 9.66259 8.29232 9.33101 7.94366 8.98967L7.94579 8.99036Z" fill="white"/>
</svg>
