<svg width="773" height="755" viewBox="0 0 773 755" fill="none" xmlns="http://www.w3.org/2000/svg">
<g clip-path="url(#clip0_76_808)">
<path d="M155.268 328.325C138.938 327.356 122.686 326.129 106.908 322.16C91.037 318.166 75.8058 312.373 62.8343 301.933C53.9574 294.787 47.1608 286.063 42.8034 275.701C38.4022 265.226 37.1365 254.15 37.5307 242.798C38.0168 228.804 41.1567 215.42 46.3156 202.477C49.7621 193.831 52.9502 184.973 57.4915 176.889C63.6094 166 70.2091 155.214 77.9254 145.4C85.6899 135.527 94.4704 126.232 103.89 117.871C118.355 105.036 134.195 93.8744 152.286 86.3091C170.692 78.6141 189.729 75.4237 209.221 81.2079C221.654 84.8998 232.033 92.3873 240.871 101.824C251.398 113.069 259.141 126.141 265.25 140.04C269.564 149.857 273.023 160.107 276.028 170.4C284.891 200.77 287.024 231.796 282.64 263.025C280.372 279.185 273.037 293.36 259.198 303.264C249.393 310.28 238.278 314.902 226.673 318.001C215.532 320.976 204.238 323.69 192.83 325.294C180.414 327.041 167.798 327.378 155.268 328.325Z" fill="#DD3737"/>
<path d="M383.715 618.365C386.132 634.338 388.282 650.286 387.608 666.346C386.934 682.501 384.345 698.41 376.682 713.095C371.435 723.146 364.192 731.515 354.824 737.866C345.356 744.286 334.64 747.796 323.307 749.767C309.337 752.197 295.419 751.929 281.528 749.625C272.244 748.086 262.807 746.841 253.855 744.126C241.795 740.468 229.743 736.331 218.418 730.906C207.023 725.45 195.996 718.892 185.761 711.521C170.048 700.208 155.706 687.217 144.465 671.309C133.03 655.123 125.927 637.399 127.631 617.379C128.717 604.609 133.989 593.036 141.517 582.548C150.482 570.055 161.837 559.874 174.349 551.099C183.186 544.899 192.628 539.439 202.21 534.407C230.478 519.562 260.788 511.085 292.643 508.858C309.131 507.704 324.695 511.858 337.373 523.176C346.355 531.195 353.235 540.974 358.709 551.539C363.96 561.681 368.987 572.031 372.937 582.713C377.238 594.342 380.181 606.459 383.715 618.36V618.365Z" fill="#BC72A7"/>
<path d="M391.751 621.036C389.333 637.01 387.183 652.957 387.857 669.018C388.532 685.173 391.12 701.081 398.784 715.767C404.03 725.818 411.274 734.187 420.641 740.538C430.109 746.957 440.825 750.468 452.159 752.439C466.129 754.868 480.046 754.6 493.937 752.296C503.222 750.757 512.659 749.512 521.61 746.797C533.671 743.14 545.723 739.003 557.048 733.578C568.443 728.122 579.47 721.564 589.704 714.193C605.417 702.88 619.759 689.889 631.001 673.98C642.435 657.795 649.539 640.071 647.835 620.051C646.749 607.281 641.476 595.708 633.948 585.22C624.984 572.727 613.628 562.546 601.117 553.77C592.279 547.571 582.837 542.111 573.255 537.079C544.987 522.234 514.678 513.756 482.823 511.53C466.335 510.376 450.771 514.53 438.092 525.848C429.111 533.867 422.231 543.646 416.757 554.211C411.506 564.353 406.478 574.702 402.528 585.384C398.228 597.013 395.285 609.131 391.751 621.032V621.036Z" fill="#EE8F31"/>
<path d="M615.805 328.325C632.135 327.356 648.387 326.129 664.165 322.16C680.036 318.166 695.267 312.373 708.239 301.933C717.116 294.787 723.912 286.063 728.27 275.701C732.671 265.226 733.937 254.15 733.542 242.798C733.056 228.804 729.916 215.42 724.757 202.477C721.311 193.831 718.123 184.973 713.581 176.889C707.464 166 700.864 155.214 693.148 145.4C685.383 135.527 676.603 126.232 667.183 117.871C652.718 105.036 636.878 93.8744 618.787 86.3091C600.381 78.6141 581.344 75.4237 561.852 81.2079C549.419 84.8998 539.04 92.3873 530.202 101.824C519.675 113.069 511.932 126.141 505.823 140.04C501.509 149.857 498.05 160.107 495.045 170.4C486.182 200.77 484.049 231.796 488.433 263.025C490.701 279.185 498.036 293.36 511.875 303.264C521.68 310.28 532.795 314.902 544.4 318.001C555.541 320.976 566.835 323.69 578.243 325.294C590.659 327.041 603.276 327.378 615.805 328.325Z" fill="#8BBE35"/>
<path d="M286.932 173.517C277.552 160.285 268.425 146.957 261.769 132.289C255.077 117.534 250.203 102.153 250.426 85.6347C250.58 74.33 253.282 63.6478 258.795 53.8389C264.37 43.9262 272.375 36.0626 281.629 29.3101C293.037 20.9882 305.61 15.096 319.085 11.0453C328.089 8.33476 337.102 5.29568 346.337 3.78262C358.783 1.74648 371.444 0.14264 384.026 0.0129497C396.686 -0.121064 409.522 0.894846 422.012 2.98286C441.189 6.19054 459.893 11.5035 477.139 20.7894C494.686 30.2395 509.051 42.9794 516.574 61.6462C521.374 73.5562 521.882 86.2356 519.885 98.9366C517.507 114.067 511.945 128.178 504.711 141.54C499.604 150.977 493.618 160.025 487.316 168.745C468.722 194.475 445.424 215.407 417.917 231.429C403.68 239.72 387.875 242.854 371.413 238.311C359.751 235.09 349.175 229.366 339.506 222.32C330.222 215.554 321.047 208.504 312.687 200.683C303.587 192.167 295.476 182.622 286.937 173.522L286.932 173.517Z" fill="#F9EE22"/>
<path d="M773 426.816C772.466 434.718 772.426 444.994 770.924 455.058C768.84 469.013 765.428 482.726 760.291 496.002C755.365 508.733 749.488 520.976 742.428 532.665C735.115 544.77 726.356 555.75 715.447 564.919C701.355 576.764 685.291 583.772 666.487 583.327C657.422 583.11 648.492 581.286 640.303 577.538C631.273 573.405 622.234 568.974 614.049 563.449C606.319 558.236 599.488 551.647 592.617 545.284C576.628 530.482 563.139 513.644 552.603 494.661C546.87 484.334 541.304 473.842 536.741 462.987C531.749 451.111 528.709 438.601 529.62 425.489C530.47 413.255 535.287 402.659 542.96 393.161C553.628 379.954 566.301 368.926 580.481 359.584C588.78 354.116 597.097 348.595 605.838 343.883C613.69 339.651 622.041 336.27 630.335 332.916C637.82 329.89 645.427 327.084 653.169 324.797C659.3 322.986 665.694 321.983 672.018 320.88C675.618 320.254 679.305 320.132 682.957 319.813C696.283 318.65 709.408 319.493 722.043 324.175C738.855 330.404 750.771 342.029 759.122 357.483C766.225 370.634 769.514 384.965 771.647 399.499C772.856 407.721 772.532 416.164 773 426.816Z" fill="#3A569F"/>
<path d="M0 426.816C0.534275 434.718 0.573689 444.994 2.07579 455.058C4.16034 469.013 7.57182 482.726 12.7087 496.002C17.6355 508.733 23.5125 520.976 30.5719 532.665C37.8854 544.77 46.644 555.75 57.5528 564.919C71.6454 576.764 87.7087 583.772 106.513 583.327C115.579 583.11 124.508 581.286 132.697 577.538C141.727 573.405 150.766 568.974 158.951 563.449C166.681 558.236 173.512 551.647 180.384 545.284C196.372 530.482 209.861 513.644 220.397 494.661C226.13 484.334 231.696 473.842 236.259 462.987C241.252 451.111 244.291 438.601 243.38 425.489C242.53 413.255 237.713 402.659 230.041 393.161C219.373 379.954 206.699 368.926 192.519 359.584C184.22 354.116 175.904 348.595 167.162 343.883C159.31 339.651 150.959 336.27 142.665 332.916C135.18 329.89 127.574 327.084 119.831 324.797C113.7 322.986 107.306 321.983 100.982 320.88C97.3826 320.254 93.6953 320.132 90.0429 319.813C76.7167 318.65 63.5919 319.493 50.9576 324.175C34.1454 330.404 22.2294 342.029 13.878 357.483C6.77479 370.634 3.48593 384.965 1.35321 399.499C0.144517 407.721 0.468586 416.164 0 426.816Z" fill="#6BAECB"/>
</g>
<defs>
<clipPath id="clip0_76_808">
<rect width="773" height="754.146" fill="white"/>
</clipPath>
</defs>
</svg>
